<mxfile host="app.diagrams.net" agent="Mozilla/5.0 (Windows NT 10.0; Win64; x64) AppleWebKit/537.36 (KHTML, like Gecko) Chrome/139.0.0.0 Safari/537.36" version="27.1.4">
  <diagram id="Ht1M8jgEwFfnCIfOTk4-" name="Page-1">
    <mxGraphModel dx="1025" dy="1324" grid="1" gridSize="10" guides="1" tooltips="1" connect="1" arrows="1" fold="1" page="1" pageScale="1" pageWidth="1169" pageHeight="827" math="0" shadow="0">
      <root>
        <mxCell id="0" />
        <mxCell id="1" parent="0" />
        <mxCell id="UEzPUAAOIrF-is8g5C7q-175" value="AWS Cloud" style="points=[[0,0],[0.25,0],[0.5,0],[0.75,0],[1,0],[1,0.25],[1,0.5],[1,0.75],[1,1],[0.75,1],[0.5,1],[0.25,1],[0,1],[0,0.75],[0,0.5],[0,0.25]];outlineConnect=0;gradientColor=none;html=1;whiteSpace=wrap;fontSize=12;fontStyle=0;shape=mxgraph.aws4.group;grIcon=mxgraph.aws4.group_aws_cloud_alt;strokeColor=#232F3E;fillColor=none;verticalAlign=top;align=left;spacingLeft=30;fontColor=#232F3E;dashed=0;labelBackgroundColor=#ffffff;container=1;pointerEvents=0;collapsible=0;recursiveResize=0;" parent="1" vertex="1">
          <mxGeometry x="140" y="-760" width="760" height="410" as="geometry" />
        </mxCell>
        <mxCell id="UXK-IEf5kOO5wvb6r6s6-17" value="" style="shape=mxgraph.mockup.containers.marginRect;rectMarginTop=10;strokeColor=#666666;strokeWidth=1;dashed=0;rounded=1;arcSize=5;recursiveResize=0;html=1;whiteSpace=wrap;" parent="UEzPUAAOIrF-is8g5C7q-175" vertex="1">
          <mxGeometry x="430" width="160" height="230" as="geometry" />
        </mxCell>
        <mxCell id="UXK-IEf5kOO5wvb6r6s6-18" value="Kafka Topics" style="shape=rect;strokeColor=none;fillColor=#008cff;strokeWidth=1;dashed=0;rounded=1;arcSize=20;fontColor=#ffffff;fontSize=17;spacing=2;spacingTop=-2;align=left;autosize=1;spacingLeft=4;resizeWidth=0;resizeHeight=0;perimeter=none;html=1;whiteSpace=wrap;" parent="UXK-IEf5kOO5wvb6r6s6-17" vertex="1">
          <mxGeometry y="10" width="125" height="20" as="geometry" />
        </mxCell>
        <mxCell id="UXK-IEf5kOO5wvb6r6s6-14" value="purchases" style="sketch=0;outlineConnect=0;fontColor=#232F3E;gradientColor=none;fillColor=#7AA116;strokeColor=none;dashed=0;verticalLabelPosition=bottom;verticalAlign=top;align=center;html=1;fontSize=12;fontStyle=0;aspect=fixed;pointerEvents=1;shape=mxgraph.aws4.topic_2;" parent="UXK-IEf5kOO5wvb6r6s6-17" vertex="1">
          <mxGeometry x="30" y="40" width="27.18" height="40" as="geometry" />
        </mxCell>
        <mxCell id="UXK-IEf5kOO5wvb6r6s6-15" value="points-calculated" style="sketch=0;outlineConnect=0;fontColor=#232F3E;gradientColor=none;fillColor=#7AA116;strokeColor=none;dashed=0;verticalLabelPosition=bottom;verticalAlign=top;align=center;html=1;fontSize=12;fontStyle=0;aspect=fixed;pointerEvents=1;shape=mxgraph.aws4.topic_2;" parent="UXK-IEf5kOO5wvb6r6s6-17" vertex="1">
          <mxGeometry x="90" y="90" width="27.18" height="40" as="geometry" />
        </mxCell>
        <mxCell id="UXK-IEf5kOO5wvb6r6s6-16" value="fraud-alerts" style="sketch=0;outlineConnect=0;fontColor=#232F3E;gradientColor=none;fillColor=#7AA116;strokeColor=none;dashed=0;verticalLabelPosition=bottom;verticalAlign=top;align=center;html=1;fontSize=12;fontStyle=0;aspect=fixed;pointerEvents=1;shape=mxgraph.aws4.topic_2;" parent="UXK-IEf5kOO5wvb6r6s6-17" vertex="1">
          <mxGeometry x="29.999999999999943" y="160" width="27.18" height="40" as="geometry" />
        </mxCell>
        <mxCell id="UXK-IEf5kOO5wvb6r6s6-20" value="" style="edgeStyle=orthogonalEdgeStyle;rounded=0;orthogonalLoop=1;jettySize=auto;html=1;" parent="UEzPUAAOIrF-is8g5C7q-175" source="UXK-IEf5kOO5wvb6r6s6-1" target="UXK-IEf5kOO5wvb6r6s6-14" edge="1">
          <mxGeometry relative="1" as="geometry">
            <Array as="points">
              <mxPoint x="440" y="79" />
              <mxPoint x="440" y="60" />
            </Array>
          </mxGeometry>
        </mxCell>
        <mxCell id="UXK-IEf5kOO5wvb6r6s6-1" value="" style="sketch=0;points=[[0,0,0],[0.25,0,0],[0.5,0,0],[0.75,0,0],[1,0,0],[0,1,0],[0.25,1,0],[0.5,1,0],[0.75,1,0],[1,1,0],[0,0.25,0],[0,0.5,0],[0,0.75,0],[1,0.25,0],[1,0.5,0],[1,0.75,0]];outlineConnect=0;fontColor=#232F3E;fillColor=#8C4FFF;strokeColor=#ffffff;dashed=0;verticalLabelPosition=bottom;verticalAlign=top;align=center;html=1;fontSize=12;fontStyle=0;aspect=fixed;shape=mxgraph.aws4.resourceIcon;resIcon=mxgraph.aws4.managed_streaming_for_kafka;" parent="UEzPUAAOIrF-is8g5C7q-175" vertex="1">
          <mxGeometry x="310" y="40" width="78" height="78" as="geometry" />
        </mxCell>
        <mxCell id="UXK-IEf5kOO5wvb6r6s6-3" value="" style="edgeStyle=orthogonalEdgeStyle;rounded=0;orthogonalLoop=1;jettySize=auto;html=1;" parent="UEzPUAAOIrF-is8g5C7q-175" source="UXK-IEf5kOO5wvb6r6s6-2" target="UXK-IEf5kOO5wvb6r6s6-1" edge="1">
          <mxGeometry relative="1" as="geometry" />
        </mxCell>
        <mxCell id="UXK-IEf5kOO5wvb6r6s6-2" value="Purchase Producer" style="sketch=0;points=[[0,0,0],[0.25,0,0],[0.5,0,0],[0.75,0,0],[1,0,0],[0,1,0],[0.25,1,0],[0.5,1,0],[0.75,1,0],[1,1,0],[0,0.25,0],[0,0.5,0],[0,0.75,0],[1,0.25,0],[1,0.5,0],[1,0.75,0]];outlineConnect=0;fontColor=#232F3E;fillColor=#ED7100;strokeColor=#ffffff;dashed=0;verticalLabelPosition=bottom;verticalAlign=top;align=center;html=1;fontSize=12;fontStyle=0;aspect=fixed;shape=mxgraph.aws4.resourceIcon;resIcon=mxgraph.aws4.lambda;" parent="UEzPUAAOIrF-is8g5C7q-175" vertex="1">
          <mxGeometry x="100" y="40" width="78" height="78" as="geometry" />
        </mxCell>
        <mxCell id="UXK-IEf5kOO5wvb6r6s6-5" style="edgeStyle=orthogonalEdgeStyle;rounded=0;orthogonalLoop=1;jettySize=auto;html=1;" parent="UEzPUAAOIrF-is8g5C7q-175" source="UXK-IEf5kOO5wvb6r6s6-4" target="UXK-IEf5kOO5wvb6r6s6-1" edge="1">
          <mxGeometry relative="1" as="geometry" />
        </mxCell>
        <mxCell id="UXK-IEf5kOO5wvb6r6s6-21" style="edgeStyle=orthogonalEdgeStyle;rounded=0;orthogonalLoop=1;jettySize=auto;html=1;" parent="UEzPUAAOIrF-is8g5C7q-175" source="UXK-IEf5kOO5wvb6r6s6-4" target="UXK-IEf5kOO5wvb6r6s6-15" edge="1">
          <mxGeometry relative="1" as="geometry">
            <Array as="points">
              <mxPoint x="320" y="199" />
              <mxPoint x="320" y="150" />
              <mxPoint x="450" y="150" />
              <mxPoint x="450" y="110" />
            </Array>
          </mxGeometry>
        </mxCell>
        <mxCell id="UXK-IEf5kOO5wvb6r6s6-24" value="Flink Points Processor" style="edgeLabel;html=1;align=center;verticalAlign=middle;resizable=0;points=[];" parent="UXK-IEf5kOO5wvb6r6s6-21" vertex="1" connectable="0">
          <mxGeometry x="-0.2709" y="-3" relative="1" as="geometry">
            <mxPoint x="18" y="-3" as="offset" />
          </mxGeometry>
        </mxCell>
        <mxCell id="UXK-IEf5kOO5wvb6r6s6-23" style="edgeStyle=orthogonalEdgeStyle;rounded=0;orthogonalLoop=1;jettySize=auto;html=1;" parent="UEzPUAAOIrF-is8g5C7q-175" source="UXK-IEf5kOO5wvb6r6s6-4" target="UXK-IEf5kOO5wvb6r6s6-16" edge="1">
          <mxGeometry relative="1" as="geometry" />
        </mxCell>
        <mxCell id="UXK-IEf5kOO5wvb6r6s6-25" value="Fraud Detection" style="edgeLabel;html=1;align=center;verticalAlign=middle;resizable=0;points=[];" parent="UXK-IEf5kOO5wvb6r6s6-23" vertex="1" connectable="0">
          <mxGeometry x="-0.2663" y="2" relative="1" as="geometry">
            <mxPoint as="offset" />
          </mxGeometry>
        </mxCell>
        <mxCell id="UXK-IEf5kOO5wvb6r6s6-4" value="" style="sketch=0;points=[[0,0,0],[0.25,0,0],[0.5,0,0],[0.75,0,0],[1,0,0],[0,1,0],[0.25,1,0],[0.5,1,0],[0.75,1,0],[1,1,0],[0,0.25,0],[0,0.5,0],[0,0.75,0],[1,0.25,0],[1,0.5,0],[1,0.75,0]];outlineConnect=0;fontColor=#232F3E;fillColor=#8C4FFF;strokeColor=#ffffff;dashed=0;verticalLabelPosition=bottom;verticalAlign=top;align=center;html=1;fontSize=12;fontStyle=0;aspect=fixed;shape=mxgraph.aws4.resourceIcon;resIcon=mxgraph.aws4.managed_service_for_apache_flink;" parent="UEzPUAAOIrF-is8g5C7q-175" vertex="1">
          <mxGeometry x="232" y="160" width="78" height="78" as="geometry" />
        </mxCell>
        <mxCell id="UXK-IEf5kOO5wvb6r6s6-12" value="" style="edgeStyle=orthogonalEdgeStyle;rounded=0;orthogonalLoop=1;jettySize=auto;html=1;" parent="UEzPUAAOIrF-is8g5C7q-175" source="UXK-IEf5kOO5wvb6r6s6-6" target="UXK-IEf5kOO5wvb6r6s6-8" edge="1">
          <mxGeometry relative="1" as="geometry" />
        </mxCell>
        <mxCell id="UXK-IEf5kOO5wvb6r6s6-6" value="" style="sketch=0;points=[[0,0,0],[0.25,0,0],[0.5,0,0],[0.75,0,0],[1,0,0],[0,1,0],[0.25,1,0],[0.5,1,0],[0.75,1,0],[1,1,0],[0,0.25,0],[0,0.5,0],[0,0.75,0],[1,0.25,0],[1,0.5,0],[1,0.75,0]];outlineConnect=0;fontColor=#232F3E;fillColor=#C925D1;strokeColor=#ffffff;dashed=0;verticalLabelPosition=bottom;verticalAlign=top;align=center;html=1;fontSize=12;fontStyle=0;aspect=fixed;shape=mxgraph.aws4.resourceIcon;resIcon=mxgraph.aws4.dynamodb;" parent="UEzPUAAOIrF-is8g5C7q-175" vertex="1">
          <mxGeometry x="80" y="308" width="78" height="78" as="geometry" />
        </mxCell>
        <mxCell id="UXK-IEf5kOO5wvb6r6s6-10" value="" style="edgeStyle=orthogonalEdgeStyle;rounded=0;orthogonalLoop=1;jettySize=auto;html=1;" parent="UEzPUAAOIrF-is8g5C7q-175" source="UXK-IEf5kOO5wvb6r6s6-7" target="UXK-IEf5kOO5wvb6r6s6-9" edge="1">
          <mxGeometry relative="1" as="geometry" />
        </mxCell>
        <mxCell id="UXK-IEf5kOO5wvb6r6s6-30" value="Customer Points Query" style="edgeLabel;html=1;align=center;verticalAlign=middle;resizable=0;points=[];" parent="UXK-IEf5kOO5wvb6r6s6-10" vertex="1" connectable="0">
          <mxGeometry x="-0.0278" y="-1" relative="1" as="geometry">
            <mxPoint as="offset" />
          </mxGeometry>
        </mxCell>
        <mxCell id="UXK-IEf5kOO5wvb6r6s6-7" value="" style="sketch=0;points=[[0,0,0],[0.25,0,0],[0.5,0,0],[0.75,0,0],[1,0,0],[0,1,0],[0.25,1,0],[0.5,1,0],[0.75,1,0],[1,1,0],[0,0.25,0],[0,0.5,0],[0,0.75,0],[1,0.25,0],[1,0.5,0],[1,0.75,0]];outlineConnect=0;fontColor=#232F3E;fillColor=#E7157B;strokeColor=#ffffff;dashed=0;verticalLabelPosition=bottom;verticalAlign=top;align=center;html=1;fontSize=12;fontStyle=0;aspect=fixed;shape=mxgraph.aws4.resourceIcon;resIcon=mxgraph.aws4.api_gateway;" parent="UEzPUAAOIrF-is8g5C7q-175" vertex="1">
          <mxGeometry x="400" y="308" width="78" height="78" as="geometry" />
        </mxCell>
        <mxCell id="UXK-IEf5kOO5wvb6r6s6-11" value="" style="edgeStyle=orthogonalEdgeStyle;rounded=0;orthogonalLoop=1;jettySize=auto;html=1;" parent="UEzPUAAOIrF-is8g5C7q-175" source="UXK-IEf5kOO5wvb6r6s6-8" target="UXK-IEf5kOO5wvb6r6s6-7" edge="1">
          <mxGeometry relative="1" as="geometry" />
        </mxCell>
        <mxCell id="UXK-IEf5kOO5wvb6r6s6-8" value="" style="sketch=0;points=[[0,0,0],[0.25,0,0],[0.5,0,0],[0.75,0,0],[1,0,0],[0,1,0],[0.25,1,0],[0.5,1,0],[0.75,1,0],[1,1,0],[0,0.25,0],[0,0.5,0],[0,0.75,0],[1,0.25,0],[1,0.5,0],[1,0.75,0]];outlineConnect=0;fontColor=#232F3E;fillColor=#ED7100;strokeColor=#ffffff;dashed=0;verticalLabelPosition=bottom;verticalAlign=top;align=center;html=1;fontSize=12;fontStyle=0;aspect=fixed;shape=mxgraph.aws4.resourceIcon;resIcon=mxgraph.aws4.lambda;" parent="UEzPUAAOIrF-is8g5C7q-175" vertex="1">
          <mxGeometry x="240" y="308" width="78" height="78" as="geometry" />
        </mxCell>
        <mxCell id="UXK-IEf5kOO5wvb6r6s6-9" value="" style="points=[];aspect=fixed;html=1;align=center;shadow=0;dashed=0;fillColor=#FF6A00;strokeColor=none;shape=mxgraph.alibaba_cloud.user;" parent="UEzPUAAOIrF-is8g5C7q-175" vertex="1">
          <mxGeometry x="610" y="317" width="60" height="60" as="geometry" />
        </mxCell>
        <mxCell id="UXK-IEf5kOO5wvb6r6s6-28" style="edgeStyle=orthogonalEdgeStyle;rounded=0;orthogonalLoop=1;jettySize=auto;html=1;" parent="UEzPUAAOIrF-is8g5C7q-175" source="UXK-IEf5kOO5wvb6r6s6-26" target="UXK-IEf5kOO5wvb6r6s6-6" edge="1">
          <mxGeometry relative="1" as="geometry">
            <Array as="points">
              <mxPoint x="659" y="260" />
              <mxPoint x="130" y="260" />
            </Array>
          </mxGeometry>
        </mxCell>
        <mxCell id="UXK-IEf5kOO5wvb6r6s6-29" value="Loyalty Points" style="edgeLabel;html=1;align=center;verticalAlign=middle;resizable=0;points=[];" parent="UXK-IEf5kOO5wvb6r6s6-28" vertex="1" connectable="0">
          <mxGeometry x="-0.0986" y="4" relative="1" as="geometry">
            <mxPoint as="offset" />
          </mxGeometry>
        </mxCell>
        <mxCell id="UXK-IEf5kOO5wvb6r6s6-26" value="Redemption Service" style="sketch=0;points=[[0,0,0],[0.25,0,0],[0.5,0,0],[0.75,0,0],[1,0,0],[0,1,0],[0.25,1,0],[0.5,1,0],[0.75,1,0],[1,1,0],[0,0.25,0],[0,0.5,0],[0,0.75,0],[1,0.25,0],[1,0.5,0],[1,0.75,0]];outlineConnect=0;fontColor=#232F3E;fillColor=#ED7100;strokeColor=#ffffff;dashed=0;verticalLabelPosition=bottom;verticalAlign=top;align=center;html=1;fontSize=12;fontStyle=0;aspect=fixed;shape=mxgraph.aws4.resourceIcon;resIcon=mxgraph.aws4.lambda;" parent="UEzPUAAOIrF-is8g5C7q-175" vertex="1">
          <mxGeometry x="620" y="82" width="78" height="78" as="geometry" />
        </mxCell>
        <mxCell id="UXK-IEf5kOO5wvb6r6s6-27" value="" style="edgeStyle=orthogonalEdgeStyle;rounded=0;orthogonalLoop=1;jettySize=auto;html=1;" parent="UEzPUAAOIrF-is8g5C7q-175" source="UXK-IEf5kOO5wvb6r6s6-15" target="UXK-IEf5kOO5wvb6r6s6-26" edge="1">
          <mxGeometry relative="1" as="geometry" />
        </mxCell>
      </root>
    </mxGraphModel>
  </diagram>
</mxfile>
